STARTFONT 2.3
FONT -FontForge-Permanent Marker-Book-R-Normal--16-160-72-72-P-91-ISO10646-1
SIZE 16 72 72  2
FONTBOUNDINGBOX 25 23 -5 -5
COMMENT "Generated by fontforge, http://fontforge.sourceforge.net"
COMMENT "Copyright (c) 2010 by Font Diner, Inc. All rights reserved."
STARTPROPERTIES 40
FOUNDRY "FontForge"
FAMILY_NAME "Permanent Marker"
WEIGHT_NAME "Book"
SLANT "R"
SETWIDTH_NAME "Normal"
ADD_STYLE_NAME ""
PIXEL_SIZE 16
POINT_SIZE 160
RESOLUTION_X 72
RESOLUTION_Y 72
SPACING "P"
AVERAGE_WIDTH 91
CHARSET_REGISTRY "ISO10646"
CHARSET_ENCODING "1"
FONTNAME_REGISTRY ""
CHARSET_COLLECTIONS "ISO10646-1"
BITS_PER_PIXEL 2
FONT_NAME "PermanentMarker-Regular"
FACE_NAME "Permanent Marker Regular"
COPYRIGHT "Copyright (c) 2010 by Font Diner, Inc. All rights reserved."
FONT_VERSION "1.001"
FONT_ASCENT 13
FONT_DESCENT 3
UNDERLINE_POSITION -2
UNDERLINE_THICKNESS 1
X_HEIGHT 9
CAP_HEIGHT 11
RAW_ASCENT 799
RAW_DESCENT 200
NORM_SPACE 6
RELATIVE_WEIGHT 40
RELATIVE_SETWIDTH 50
SUPERSCRIPT_X 0
SUPERSCRIPT_Y 7
SUPERSCRIPT_SIZE 10
SUBSCRIPT_X 0
SUBSCRIPT_Y 2
SUBSCRIPT_SIZE 10
AVG_LOWERCASE_WIDTH 89
AVG_UPPERCASE_WIDTH 108
ENDPROPERTIES
CHARS 230
STARTCHAR space
ENCODING 32
SWIDTH 370 0
DWIDTH 6 0
BBX 1 1 0 0
BITMAP
00
ENDCHAR
STARTCHAR exclam
ENCODING 33
SWIDTH 260 0
DWIDTH 4 0
BBX 5 13 0 -1
BITMAP
0600
0B40
0F40
1F00
1F00
2E00
2D00
3D00
0400
1000
B800
B800
1000
ENDCHAR
STARTCHAR quotedbl
ENCODING 34
SWIDTH 492 0
DWIDTH 8 0
BBX 8 8 1 4
BITMAP
1928
2E3D
3E7C
7CB8
BCF4
B9F4
B5F0
2090
ENDCHAR
STARTCHAR numbersign
ENCODING 35
SWIDTH 703 0
DWIDTH 11 0
BBX 12 12 0 0
BITMAP
001040
00B0E0
00F5F0
05FAF4
2FFFFD
1BEBD4
07C780
6FFFE0
7FFFA0
2F2E00
2E3D00
2D2C00
ENDCHAR
STARTCHAR dollar
ENCODING 36
SWIDTH 493 0
DWIDTH 8 0
BBX 9 13 0 -1
BITMAP
001000
007400
00BA00
1BFF80
7F9540
7F9000
1AF000
007400
01F400
3FD000
2F4000
0F0000
010000
ENDCHAR
STARTCHAR percent
ENCODING 37
SWIDTH 643 0
DWIDTH 10 0
BBX 11 12 0 0
BITMAP
010000
078034
1FC0F4
3ED3E0
3FDF40
197D00
00F400
07D780
1F5F80
3D3ED0
7C7FD0
742A40
ENDCHAR
STARTCHAR ampersand
ENCODING 38
SWIDTH 599 0
DWIDTH 10 0
BBX 10 9 0 0
BITMAP
002000
00B800
2EF800
BFFE40
BFFFD0
2BF500
02F000
02E000
004000
ENDCHAR
STARTCHAR quotesingle
ENCODING 39
SWIDTH 265 0
DWIDTH 4 0
BBX 4 8 1 4
BITMAP
19
2E
3E
7C
BC
B8
B4
20
ENDCHAR
STARTCHAR parenleft
ENCODING 40
SWIDTH 361 0
DWIDTH 6 0
BBX 8 17 0 -3
BITMAP
0005
002D
00BD
02FC
07E0
0F80
2F40
2E00
3D00
7C00
7C00
7C00
7C00
7D00
3D00
1D00
0900
ENDCHAR
STARTCHAR parenright
ENCODING 41
SWIDTH 361 0
DWIDTH 6 0
BBX 7 17 -2 -3
BITMAP
0040
00E0
00F4
00BC
00BC
007C
007C
007C
00B8
00F4
01F4
03F0
0BD0
2F80
BE00
B800
9000
ENDCHAR
STARTCHAR asterisk
ENCODING 42
SWIDTH 673 0
DWIDTH 11 0
BBX 10 8 1 4
BITMAP
020140
0B9F00
07FE00
6BFF90
BFFFE0
6BFD00
0BAE00
1F4A00
ENDCHAR
STARTCHAR plus
ENCODING 43
SWIDTH 579 0
DWIDTH 9 0
BBX 9 9 0 0
BITMAP
004000
01E000
02F000
07F400
BFFF40
7FEA00
07C000
0BC000
064000
ENDCHAR
STARTCHAR comma
ENCODING 44
SWIDTH 204 0
DWIDTH 3 0
BBX 4 5 -2 -3
BITMAP
1E
2F
3E
BC
24
ENDCHAR
STARTCHAR hyphen
ENCODING 45
SWIDTH 609 0
DWIDTH 10 0
BBX 9 3 0 3
BITMAP
055500
BFFF40
7EAA40
ENDCHAR
STARTCHAR period
ENCODING 46
SWIDTH 228 0
DWIDTH 4 0
BBX 4 4 -1 -1
BITMAP
14
7D
7C
14
ENDCHAR
STARTCHAR slash
ENCODING 47
SWIDTH 401 0
DWIDTH 6 0
BBX 9 11 -1 0
BITMAP
000380
000B80
002F00
007D00
01F400
03E000
0B8000
2E0000
7C0000
B80000
740000
ENDCHAR
STARTCHAR zero
ENCODING 48
SWIDTH 686 0
DWIDTH 11 0
BBX 11 13 0 -1
BITMAP
001A00
007F80
01FF40
07FF80
0FEBC0
2F83E0
3E01F0
BD01F4
BC07F4
BEAFF0
7FFFD0
2FFD00
054000
ENDCHAR
STARTCHAR one
ENCODING 49
SWIDTH 322 0
DWIDTH 5 0
BBX 5 12 0 0
BITMAP
1400
2E00
2F00
1F40
1F40
1F40
2F40
3F00
7E00
7D00
BC00
7800
ENDCHAR
STARTCHAR two
ENCODING 50
SWIDTH 650 0
DWIDTH 10 0
BBX 11 12 1 0
BITMAP
1A9000
BFFD00
BFFF40
697F80
00BF40
03FD00
1FF400
3F8000
BE06A0
FFFFF4
FFFFE0
7FA500
ENDCHAR
STARTCHAR three
ENCODING 51
SWIDTH 561 0
DWIDTH 9 0
BBX 9 12 0 0
BITMAP
015500
6FFF40
FFFF80
FFFF40
5FF900
0FF400
0FFD00
01BF00
002F40
7BFF00
BFFD00
7E9000
ENDCHAR
STARTCHAR four
ENCODING 52
SWIDTH 582 0
DWIDTH 9 0
BBX 8 13 1 -1
BITMAP
0020
4074
D0B8
F0B8
F4BE
BFFF
BFFE
1BE0
03D0
03C0
03D0
03E0
0040
ENDCHAR
STARTCHAR five
ENCODING 53
SWIDTH 580 0
DWIDTH 9 0
BBX 11 12 0 0
BITMAP
004000
07E5A0
1FFFF4
3FFFF4
7FE500
3FD000
1FF800
01BD00
002E00
3FFF00
3FFD00
1AA400
ENDCHAR
STARTCHAR six
ENCODING 54
SWIDTH 500 0
DWIDTH 8 0
BBX 8 12 0 0
BITMAP
0050
03F0
0BF4
1F90
2F00
3D00
7DB8
BBFD
FBFE
FFFD
FFF4
BF90
ENDCHAR
STARTCHAR seven
ENCODING 55
SWIDTH 576 0
DWIDTH 9 0
BBX 10 12 0 0
BITMAP
194000
BFF800
BFFE00
55BF00
001F00
006F50
1FFFF0
3FFF90
1BF400
03E000
07C000
078000
ENDCHAR
STARTCHAR eight
ENCODING 56
SWIDTH 537 0
DWIDTH 9 0
BBX 9 12 1 0
BITMAP
0A4500
3FDB00
BFEB40
F5FF40
F9BE00
BFF800
3FD000
7FC000
B6D000
BAE000
7FE000
2F8000
ENDCHAR
STARTCHAR nine
ENCODING 57
SWIDTH 529 0
DWIDTH 8 0
BBX 9 13 0 -1
BITMAP
006400
07FD00
1FFE00
3F5F00
7FFF40
7FFF40
1ABD00
003D00
003C00
007800
007800
007400
001000
ENDCHAR
STARTCHAR colon
ENCODING 58
SWIDTH 241 0
DWIDTH 4 0
BBX 4 8 -1 -1
BITMAP
1E
1F
0E
00
14
7D
7C
14
ENDCHAR
STARTCHAR semicolon
ENCODING 59
SWIDTH 245 0
DWIDTH 4 0
BBX 4 10 -1 -3
BITMAP
1E
1F
0E
00
00
3D
7D
BC
F8
60
ENDCHAR
STARTCHAR less
ENCODING 60
SWIDTH 625 0
DWIDTH 10 0
BBX 10 8 0 0
BITMAP
000190
001BE0
06FF80
BFF400
BF9000
1FF900
01BF00
000600
ENDCHAR
STARTCHAR equal
ENCODING 61
SWIDTH 586 0
DWIDTH 9 0
BBX 9 6 0 1
BITMAP
2FFF80
7FFE40
100000
6BFE00
BFFD00
540000
ENDCHAR
STARTCHAR greater
ENCODING 62
SWIDTH 634 0
DWIDTH 10 0
BBX 10 8 -1 0
BITMAP
090000
0BE400
02FF80
002FF0
01BFF0
2FF900
BF4000
240000
ENDCHAR
STARTCHAR question
ENCODING 63
SWIDTH 556 0
DWIDTH 9 0
BBX 9 13 1 -1
BITMAP
1AA400
7FFF80
BFFF80
106F80
00BF40
07FD00
1FE000
2E0000
140000
500000
F40000
F40000
500000
ENDCHAR
STARTCHAR at
ENCODING 64
SWIDTH 732 0
DWIDTH 12 0
BBX 12 13 0 -1
BITMAP
001A40
002FD0
007EF0
02F478
1F866C
3E6F5D
B9FB5D
F6EB6C
E2FFF4
E46940
7EA680
0BFFE0
001540
ENDCHAR
STARTCHAR A
ENCODING 65
SWIDTH 702 0
DWIDTH 11 0
BBX 12 12 -1 0
BITMAP
000100
000BD0
006FD0
00FFE0
02FFE0
03F6F0
0BE2FD
0FFFFF
2FBFFC
3F29BC
7E01FC
2D00F4
ENDCHAR
STARTCHAR B
ENCODING 66
SWIDTH 686 0
DWIDTH 11 0
BBX 12 13 -1 -1
BITMAP
006A80
1FFFF4
7FFAFC
3FC2F8
06FFF4
02FFD0
03FFE0
07E47C
0BC0BD
0F9BFD
1FFFF4
0BFE40
011000
ENDCHAR
STARTCHAR C
ENCODING 67
SWIDTH 611 0
DWIDTH 10 0
BBX 10 12 0 0
BITMAP
000100
002FC0
01FFD0
0BFF80
2FF400
BF8000
FD0000
F40000
B80000
7FEA40
2FFFC0
06BF40
ENDCHAR
STARTCHAR D
ENCODING 68
SWIDTH 588 0
DWIDTH 9 0
BBX 9 12 0 0
BITMAP
140000
3E4000
3FF400
3EFD00
3C1F40
2D07C0
3D03C0
3C1FC0
7EFF40
BFFD00
BFD000
790000
ENDCHAR
STARTCHAR E
ENCODING 69
SWIDTH 626 0
DWIDTH 10 0
BBX 11 12 0 0
BITMAP
000550
06BFF4
2FFFE0
2FF900
1F8400
1FFF40
3FFF40
7EA800
BC0000
BEAFC0
BFFFD0
2FFE40
ENDCHAR
STARTCHAR F
ENCODING 70
SWIDTH 575 0
DWIDTH 9 0
BBX 13 12 -1 0
BITMAP
0001A900
01BFFF40
0FFFEA00
0FF40000
07F00000
03E00000
3FFFD000
7FFFD000
2FE50000
1F000000
2E000000
1E000000
ENDCHAR
STARTCHAR G
ENCODING 71
SWIDTH 789 0
DWIDTH 13 0
BBX 14 12 0 0
BITMAP
00014000
000BE000
007FF000
02FF8000
0BF80000
2FD0A400
7F41FE00
BD00BF80
F806FFD0
BEBFFF40
7FFFE400
1FE90000
ENDCHAR
STARTCHAR H
ENCODING 72
SWIDTH 695 0
DWIDTH 11 0
BBX 11 12 0 0
BITMAP
000050
0D00B0
1F00F4
2F40F8
2F00F8
2F01F8
3F5BF4
7FFFF4
BFFFF0
FF87E0
FD07E0
B80280
ENDCHAR
STARTCHAR I
ENCODING 73
SWIDTH 515 0
DWIDTH 8 0
BBX 12 12 -1 0
BITMAP
016AA4
07FFFD
03FFA8
006E00
003E00
007D00
00BC00
00F800
01F400
17F900
7FFF00
7EA900
ENDCHAR
STARTCHAR J
ENCODING 74
SWIDTH 668 0
DWIDTH 11 0
BBX 14 12 -1 0
BITMAP
00055500
0BFFFFD0
0FFFFFE0
0796F540
0002F000
0003E000
0007D000
000BC000
000F8000
3EBF4000
7FFE0000
1AF80000
ENDCHAR
STARTCHAR K
ENCODING 75
SWIDTH 776 0
DWIDTH 12 0
BBX 13 12 0 0
BITMAP
01400000
03E01800
0BE1BF00
0FD7FE00
1FEFF400
2FFF8000
3FFD0000
7FFD0000
7FFFAA00
BF4BFF80
BE01BF40
78000400
ENDCHAR
STARTCHAR L
ENCODING 76
SWIDTH 632 0
DWIDTH 10 0
BBX 10 12 0 0
BITMAP
024000
07D000
0BD000
0FC000
1F8000
3F0000
7E0000
BD0000
BC1500
BFFF90
BFFFE0
3FA590
ENDCHAR
STARTCHAR M
ENCODING 77
SWIDTH 973 0
DWIDTH 16 0
BBX 16 12 0 0
BITMAP
00500010
01F800B8
03FD02FD
0BFD0BFD
0FFE7FFC
1FFFFFFC
3FFFFDF8
7F3FE1F8
BE0501F8
FC0002F4
B80001F0
74000090
ENDCHAR
STARTCHAR N
ENCODING 78
SWIDTH 684 0
DWIDTH 11 0
BBX 12 12 0 0
BITMAP
004010
02E078
03F4BD
0BF4FC
0FF0F8
2FE1F4
3FE2F4
BFE7F0
FFFFE0
FDBFD0
B82F80
740900
ENDCHAR
STARTCHAR O
ENCODING 79
SWIDTH 744 0
DWIDTH 12 0
BBX 12 12 0 0
BITMAP
000640
001FD0
00BFD0
02FFD0
0BFAF0
2FC0F4
7F007C
BD007D
B801FD
BEAFFC
7FFFE0
1FFE40
ENDCHAR
STARTCHAR P
ENCODING 80
SWIDTH 639 0
DWIDTH 10 0
BBX 11 12 0 0
BITMAP
006A40
01FFE0
07FFF4
0BE6F8
1F86F8
3FFFF4
7FFFE0
7FFA00
3E4000
3E0000
7E0000
3D0000
ENDCHAR
STARTCHAR Q
ENCODING 81
SWIDTH 744 0
DWIDTH 12 0
BBX 12 13 0 -1
BITMAP
000A00
001FD0
003FF0
01FFF4
07F8BC
2FD03D
7F593D
FD1FBD
F80BFC
FABFF4
BFFFF4
2FE4F8
000074
ENDCHAR
STARTCHAR R
ENCODING 82
SWIDTH 646 0
DWIDTH 10 0
BBX 11 13 0 -1
BITMAP
002400
00BE00
02FF80
1BEFC0
2F87D0
3F6FD0
3FFF80
7FF900
BFD000
BFF940
B9FFF0
742FF4
000190
ENDCHAR
STARTCHAR S
ENCODING 83
SWIDTH 576 0
DWIDTH 9 0
BBX 11 12 0 0
BITMAP
001690
06FFF4
2FFFFC
BFD550
BFE000
7FFC00
016E00
000F00
007F00
1AFD00
3FF400
3F8000
ENDCHAR
STARTCHAR T
ENCODING 84
SWIDTH 607 0
DWIDTH 10 0
BBX 13 13 0 -1
BITMAP
0015A900
AFFFFF40
FFFFFE40
7AFD0000
00F80000
02F40000
03F00000
07D00000
0BC00000
0B800000
0B800000
07D00000
00400000
ENDCHAR
STARTCHAR U
ENCODING 85
SWIDTH 695 0
DWIDTH 11 0
BBX 12 12 0 0
BITMAP
000014
00002C
2C003D
2E007D
3F007D
3E00FC
7E02F8
7E0BF0
3FBFD0
2FFF40
1FFD00
0AD000
ENDCHAR
STARTCHAR V
ENCODING 86
SWIDTH 583 0
DWIDTH 9 0
BBX 10 12 1 0
BITMAP
500180
E007D0
F40FD0
F82F80
BC7F00
BCFD00
BEF400
BFF000
7FD000
3F8000
3F0000
1E0000
ENDCHAR
STARTCHAR W
ENCODING 87
SWIDTH 994 0
DWIDTH 16 0
BBX 17 12 0 0
BITMAP
0100000500
0740100B40
0FC0B41F80
1F81F82F80
2F43F83F00
3F0BF47E00
7E1FF4FD00
7D3FF2F800
BEFFFFF400
7FFDBFE000
3FF43FC000
1A401E0000
ENDCHAR
STARTCHAR X
ENCODING 88
SWIDTH 623 0
DWIDTH 10 0
BBX 12 13 -1 -1
BITMAP
050000
0B802D
0BE1FF
07FBFD
02FFE0
00FF40
02FF00
0BFF40
2FDFD0
3F47E0
7D03F0
3C01D0
140000
ENDCHAR
STARTCHAR Y
ENCODING 89
SWIDTH 493 0
DWIDTH 8 0
BBX 10 13 0 -1
BITMAP
240180
3D0BE0
3E2FD0
2E7F40
2FFD00
1FF800
0BF000
0BE000
1FC000
2F4000
7E0000
3D0000
140000
ENDCHAR
STARTCHAR Z
ENCODING 90
SWIDTH 664 0
DWIDTH 11 0
BBX 11 13 0 -1
BITMAP
055550
0BFFF8
07FFFC
015BF8
002FD0
01FF40
0BFD00
7FE000
FF4140
FD6FE0
FFFFD0
BFF900
1A4000
ENDCHAR
STARTCHAR bracketleft
ENCODING 91
SWIDTH 387 0
DWIDTH 6 0
BBX 12 18 -1 -3
BITMAP
000554
00FFFF
00BFFE
00F400
01F000
01F000
02E000
03D000
07C000
0BC000
0F8000
0F4000
1F0000
2E0000
3E0000
7FFE00
7FFE00
250000
ENDCHAR
STARTCHAR backslash
ENCODING 92
SWIDTH 352 0
DWIDTH 6 0
BBX 4 13 1 -1
BITMAP
80
F0
F4
B4
74
78
3C
3C
2D
2D
2D
1E
04
ENDCHAR
STARTCHAR bracketright
ENCODING 93
SWIDTH 403 0
DWIDTH 6 0
BBX 12 18 -5 -3
BITMAP
001554
00BFFD
007FFE
00103D
00007C
0000B8
0000B8
0000F4
0001F0
0002E0
0003E0
0007D0
0007C0
000B80
001F40
6FFF00
7FFE00
250000
ENDCHAR
STARTCHAR asciicircum
ENCODING 94
SWIDTH 518 0
DWIDTH 8 0
BBX 8 9 0 3
BITMAP
0060
00B8
01F8
03FC
0BBC
1F3D
7D2D
F82D
B00D
ENDCHAR
STARTCHAR underscore
ENCODING 95
SWIDTH 708 0
DWIDTH 11 0
BBX 13 3 -2 -1
BITMAP
6AFFFA40
7FFFFFC0
15555400
ENDCHAR
STARTCHAR grave
ENCODING 96
SWIDTH 754 0
DWIDTH 12 0
BBX 6 5 4 7
BITMAP
2400
7E00
2F80
0BD0
0180
ENDCHAR
STARTCHAR a
ENCODING 97
SWIDTH 581 0
DWIDTH 9 0
BBX 10 10 -1 0
BITMAP
000400
002F00
01FF00
03FF40
07DF40
0F8BE0
1FFFF0
2EFBD0
7C07D0
380780
ENDCHAR
STARTCHAR b
ENCODING 98
SWIDTH 573 0
DWIDTH 9 0
BBX 10 11 -1 -1
BITMAP
01A900
2FFF80
7F9BD0
1BAF80
07FF00
07FF40
0B82D0
0F4BE0
1FBFD0
1FF900
044000
ENDCHAR
STARTCHAR c
ENCODING 99
SWIDTH 513 0
DWIDTH 8 0
BBX 8 10 0 0
BITMAP
0014
00BE
0BFE
2FE4
BE40
F800
F000
B950
7FFD
1BFD
ENDCHAR
STARTCHAR d
ENCODING 100
SWIDTH 497 0
DWIDTH 8 0
BBX 8 10 0 0
BITMAP
1000
3E40
3FE0
39B8
381D
381E
78BD
BFF8
BFD0
7900
ENDCHAR
STARTCHAR e
ENCODING 101
SWIDTH 521 0
DWIDTH 8 0
BBX 9 11 0 -1
BITMAP
001500
1AFF80
3FFE00
2F4000
2FF800
3FFC00
BD5000
B85800
BFFE00
7FF900
040000
ENDCHAR
STARTCHAR f
ENCODING 102
SWIDTH 455 0
DWIDTH 7 0
BBX 11 10 -1 0
BITMAP
001690
06FFF4
1FF950
0BC000
078000
3FFF00
7FFE00
2E4000
2D0000
2C0000
ENDCHAR
STARTCHAR g
ENCODING 103
SWIDTH 652 0
DWIDTH 10 0
BBX 11 10 0 0
BITMAP
000400
007F40
02FF00
0BF400
2F8240
7E07E0
F803F8
F56FF8
BFFFE0
2FE500
ENDCHAR
STARTCHAR h
ENCODING 104
SWIDTH 582 0
DWIDTH 9 0
BBX 9 11 0 -1
BITMAP
000200
180740
2D07C0
3D07C0
3D0BC0
7D6F80
7FFF40
BFAF00
FD2F00
B41E00
100000
ENDCHAR
STARTCHAR i
ENCODING 105
SWIDTH 320 0
DWIDTH 5 0
BBX 3 10 1 0
BITMAP
14
3C
7C
7C
B8
F8
F4
F4
F4
B4
ENDCHAR
STARTCHAR j
ENCODING 106
SWIDTH 534 0
DWIDTH 9 0
BBX 12 10 -1 0
BITMAP
005554
0BFFFD
0FFFE9
050B40
000F40
001F00
002E00
147D00
7FFC00
2BE000
ENDCHAR
STARTCHAR k
ENCODING 107
SWIDTH 645 0
DWIDTH 10 0
BBX 11 10 0 0
BITMAP
010000
0B81D0
0F8BF0
1F7F90
2FFD00
3FF400
7FF400
BF7FF4
BD1FF4
740150
ENDCHAR
STARTCHAR l
ENCODING 108
SWIDTH 533 0
DWIDTH 9 0
BBX 8 11 0 -1
BITMAP
0500
0F80
1F40
2F00
3E00
7D00
B800
B9A4
BFFF
7FAA
0400
ENDCHAR
STARTCHAR m
ENCODING 109
SWIDTH 814 0
DWIDTH 13 0
BBX 13 10 0 0
BITMAP
01400100
03E00F40
0BF02F80
1FF1FF80
2FFFFF80
3FFFDF40
BDBE1F40
BC001F00
F4001E00
B0000900
ENDCHAR
STARTCHAR n
ENCODING 110
SWIDTH 564 0
DWIDTH 9 0
BBX 10 10 0 0
BITMAP
010100
0783C0
0BD7D0
1FC7C0
2F8B80
7F8F80
BFEF40
FEFF00
F4FD00
702400
ENDCHAR
STARTCHAR o
ENCODING 111
SWIDTH 628 0
DWIDTH 10 0
BBX 10 10 0 0
BITMAP
001800
00BE00
02FE00
0BFF40
2F4780
7D02C0
B802D0
B45FD0
BFFF80
2FF900
ENDCHAR
STARTCHAR p
ENCODING 112
SWIDTH 524 0
DWIDTH 8 0
BBX 9 11 0 -1
BITMAP
01A900
07FF40
0FFF80
1F0B80
7FBF80
7FFE00
7FA400
7C0000
7C0000
780000
100000
ENDCHAR
STARTCHAR q
ENCODING 113
SWIDTH 625 0
DWIDTH 10 0
BBX 10 11 0 -1
BITMAP
002400
007E00
01FF40
0BF7C0
2F82D0
7E65E0
F87FD0
F17FC0
FFFF40
7FE780
040280
ENDCHAR
STARTCHAR r
ENCODING 114
SWIDTH 541 0
DWIDTH 9 0
BBX 9 11 0 -1
BITMAP
005000
02F800
07FD00
2F6E00
3E6F00
7FFD00
7FE000
BF8000
BBFE40
B1BF80
000640
ENDCHAR
STARTCHAR s
ENCODING 115
SWIDTH 463 0
DWIDTH 7 0
BBX 9 11 0 -1
BITMAP
005A40
0BFF80
7FEA80
BF4000
BFE000
05B400
007800
02F400
3FE000
3F4000
140000
ENDCHAR
STARTCHAR t
ENCODING 116
SWIDTH 479 0
DWIDTH 8 0
BBX 11 11 0 -1
BITMAP
005690
FFFFF4
BFFA90
16E000
03D000
07C000
0B4000
0F0000
0E0000
0B4000
010000
ENDCHAR
STARTCHAR u
ENCODING 117
SWIDTH 584 0
DWIDTH 9 0
BBX 10 10 0 0
BITMAP
000040
1000D0
2C01E0
3D02E0
3D03D0
7C0BC0
7C6F40
3FFD00
2FF800
1F9000
ENDCHAR
STARTCHAR v
ENCODING 118
SWIDTH 485 0
DWIDTH 8 0
BBX 8 10 1 0
BITMAP
4005
E01F
F47E
B4FC
B6F4
BBD0
BF80
7F00
3E00
2D00
ENDCHAR
STARTCHAR w
ENCODING 119
SWIDTH 825 0
DWIDTH 13 0
BBX 14 10 0 0
BITMAP
00000040
0E0100E0
1F07C2F0
2E0FC3E0
3D2F87C0
7C3F8F80
7CFFAF40
BFFBFE00
7FE2FD00
2E40F400
ENDCHAR
STARTCHAR x
ENCODING 120
SWIDTH 506 0
DWIDTH 8 0
BBX 9 11 0 -1
BITMAP
100000
3D0780
3F6FC0
1FFE00
0BF400
1FE000
3FF400
BDBC00
F43D00
E02C00
400000
ENDCHAR
STARTCHAR y
ENCODING 121
SWIDTH 400 0
DWIDTH 6 0
BBX 8 11 0 -1
BITMAP
2009
3C2F
3DBE
2EF8
2FE0
0FD0
0F80
2F00
3D00
7C00
1400
ENDCHAR
STARTCHAR z
ENCODING 122
SWIDTH 547 0
DWIDTH 9 0
BBX 9 11 0 -1
BITMAP
055500
0FFFC0
0BBFC0
007F40
02FC00
1FE000
7F4000
FD1A00
FFFF40
BFF800
190000
ENDCHAR
STARTCHAR braceleft
ENCODING 123
SWIDTH 448 0
DWIDTH 7 0
BBX 13 18 0 -3
BITMAP
00055500
007FFF40
007FFE40
00B80000
00B80000
00F40000
06F00000
6FE00000
BF400000
7F800000
1FC00000
0BC00000
0F800000
1F400000
2F000000
3FFF0000
3FFF0000
19000000
ENDCHAR
STARTCHAR bar
ENCODING 124
SWIDTH 332 0
DWIDTH 5 0
BBX 6 12 0 0
BITMAP
0040
02C0
03D0
07C0
0B40
0F00
1E00
2D00
3D00
7800
F400
F000
ENDCHAR
STARTCHAR braceright
ENCODING 125
SWIDTH 481 0
DWIDTH 8 0
BBX 13 18 -5 -3
BITMAP
00159400
00BFFD00
00BFFD00
00107C00
00007C00
0000B800
0000F400
0001F800
0001FE00
00007F40
0002FE00
0007E400
000BC000
000F8000
001F4000
6FFF0000
7FFD0000
25000000
ENDCHAR
STARTCHAR asciitilde
ENCODING 126
SWIDTH 581 0
DWIDTH 9 0
BBX 9 4 0 3
BITMAP
050140
2FDB80
BAFF00
506800
ENDCHAR
STARTCHAR uni00A0
ENCODING 160
SWIDTH 370 0
DWIDTH 6 0
BBX 1 1 0 0
BITMAP
00
ENDCHAR
STARTCHAR exclamdown
ENCODING 161
SWIDTH 260 0
DWIDTH 4 0
BBX 4 13 0 -1
BITMAP
09
2F
1E
00
28
3C
7C
B8
B4
F4
F0
E0
40
ENDCHAR
STARTCHAR cent
ENCODING 162
SWIDTH 488 0
DWIDTH 8 0
BBX 8 13 0 -1
BITMAP
0050
00B0
00F8
06FD
1FE4
7E40
B800
B000
7EA4
1FFC
1F50
1E00
0400
ENDCHAR
STARTCHAR sterling
ENCODING 163
SWIDTH 586 0
DWIDTH 9 0
BBX 10 10 0 1
BITMAP
001400
01FFC0
03FBD0
07C000
6FF800
BFFD00
2F0000
6F5A00
FFFF40
6EA900
ENDCHAR
STARTCHAR currency
ENCODING 164
SWIDTH 509 0
DWIDTH 8 0
BBX 8 9 0 0
BITMAP
1445
2FFE
2FFD
3FF4
7CB8
7FF8
BFF4
A574
5010
ENDCHAR
STARTCHAR yen
ENCODING 165
SWIDTH 563 0
DWIDTH 9 0
BBX 9 10 0 0
BITMAP
0D0780
0F1FC0
0F6F40
0BFD00
1BF900
BFFF40
7FE900
0B8000
1F4000
0E0000
ENDCHAR
STARTCHAR brokenbar
ENCODING 166
SWIDTH 301 0
DWIDTH 5 0
BBX 5 12 0 0
BITMAP
0140
03C0
03C0
0B80
0F40
0A00
0000
2400
7C00
B800
F400
E000
ENDCHAR
STARTCHAR section
ENCODING 167
SWIDTH 630 0
DWIDTH 10 0
BBX 10 15 0 -2
BITMAP
001640
0AFFE0
2FFFE0
2F9000
1FF800
1FFF40
3FEFC0
7D07D0
3FFFC0
1FFF40
01FF40
006F80
BFFF80
BFFA00
194000
ENDCHAR
STARTCHAR dieresis
ENCODING 168
SWIDTH 754 0
DWIDTH 12 0
BBX 8 3 3 9
BITMAP
2428
7D3D
7828
ENDCHAR
STARTCHAR copyright
ENCODING 169
SWIDTH 614 0
DWIDTH 10 0
BBX 10 11 0 1
BITMAP
006400
07FA40
0F45C0
2D7DD0
7AE4A0
B740A0
B750E0
72F6C0
381B40
0BF900
005000
ENDCHAR
STARTCHAR ordfeminine
ENCODING 170
SWIDTH 454 0
DWIDTH 7 0
BBX 7 7 0 3
BITMAP
02D0
0FE0
2FF0
3EFC
BFF8
F5F4
6060
ENDCHAR
STARTCHAR guillemotleft
ENCODING 171
SWIDTH 566 0
DWIDTH 9 0
BBX 9 8 0 -1
BITMAP
024240
0B8B80
6E7E00
F9F800
F4F400
7D7D00
0B1A00
010100
ENDCHAR
STARTCHAR logicalnot
ENCODING 172
SWIDTH 698 0
DWIDTH 11 0
BBX 10 6 0 0
BITMAP
055540
FFFFE0
BEAAF0
0002E0
0003C0
000380
ENDCHAR
STARTCHAR sfthyphen
ENCODING 173
SWIDTH 608 0
DWIDTH 10 0
BBX 9 3 0 3
BITMAP
055400
BFFF40
7EAA40
ENDCHAR
STARTCHAR registered
ENCODING 174
SWIDTH 624 0
DWIDTH 10 0
BBX 10 11 0 1
BITMAP
005800
02FA40
0F55D0
2D7DE0
39DAB0
76FDB0
73E0A0
777FD0
280F40
0BFD00
005000
ENDCHAR
STARTCHAR macron
ENCODING 175
SWIDTH 754 0
DWIDTH 12 0
BBX 6 3 4 9
BITMAP
6A90
BFE0
5540
ENDCHAR
STARTCHAR degree
ENCODING 176
SWIDTH 284 0
DWIDTH 5 0
BBX 5 5 1 8
BITMAP
0700
2F40
7B80
BFC0
7E40
ENDCHAR
STARTCHAR plusminus
ENCODING 177
SWIDTH 559 0
DWIDTH 9 0
BBX 10 12 -1 -1
BITMAP
001C00
003D00
007D00
0AFF90
0FFFE0
05F800
00F400
00F000
005000
7FFF40
7FFE40
100000
ENDCHAR
STARTCHAR twosuperior
ENCODING 178
SWIDTH 386 0
DWIDTH 6 0
BBX 6 7 1 5
BITMAP
1500
BF80
6FC0
2F40
BEA0
BFE0
1500
ENDCHAR
STARTCHAR threesuperior
ENCODING 179
SWIDTH 366 0
DWIDTH 6 0
BBX 6 7 1 5
BITMAP
1500
BFC0
BF80
2F80
1BD0
3FC0
1500
ENDCHAR
STARTCHAR acute
ENCODING 180
SWIDTH 754 0
DWIDTH 12 0
BBX 6 5 4 7
BITMAP
0180
0BD0
2F80
7E00
2400
ENDCHAR
STARTCHAR mu
ENCODING 181
SWIDTH 569 0
DWIDTH 9 0
BBX 9 11 0 -2
BITMAP
000100
140280
2C03C0
3D0780
3C0F40
7C2F00
BEFD00
FFF400
FF8000
F00000
900000
ENDCHAR
STARTCHAR paragraph
ENCODING 182
SWIDTH 729 0
DWIDTH 12 0
BBX 12 13 1 -1
BITMAP
005AF8
1BFFFE
BFFEF8
FEBDF0
F8B9E0
7EF6E0
1FFFD0
02FFE0
02EBD0
02EB80
03DB80
03C7C0
004140
ENDCHAR
STARTCHAR periodcentered
ENCODING 183
SWIDTH 226 0
DWIDTH 4 0
BBX 4 3 0 4
BITMAP
3C
7D
14
ENDCHAR
STARTCHAR cedilla
ENCODING 184
SWIDTH 754 0
DWIDTH 12 0
BBX 6 6 4 -5
BITMAP
0A00
2D00
2F80
06E0
6BE0
6E40
ENDCHAR
STARTCHAR onesuperior
ENCODING 185
SWIDTH 206 0
DWIDTH 3 0
BBX 3 7 1 5
BITMAP
10
74
78
78
B4
F0
50
ENDCHAR
STARTCHAR ordmasculine
ENCODING 186
SWIDTH 445 0
DWIDTH 7 0
BBX 7 8 0 3
BITMAP
0040
02E0
1FF0
3FF4
BDB8
BEFC
BFF4
2A80
ENDCHAR
STARTCHAR guillemotright
ENCODING 187
SWIDTH 595 0
DWIDTH 10 0
BBX 10 8 -1 -1
BITMAP
141400
1E1F00
0BCBC0
03D2D0
0FDBD0
3E3E00
747400
101000
ENDCHAR
STARTCHAR onequarter
ENCODING 188
SWIDTH 705 0
DWIDTH 11 0
BBX 11 13 0 -1
BITMAP
040140
2D0380
1D0B80
2D2F00
3C7D00
39F400
17E4A0
0B9DF0
2E1FF8
7C0BE0
7803C0
7803C0
000040
ENDCHAR
STARTCHAR onehalf
ENCODING 189
SWIDTH 750 0
DWIDTH 12 0
BBX 11 12 0 0
BITMAP
040140
2D0380
1D0B80
2D2F00
3C7D00
39F400
17EA90
0B8FF4
2E06F0
7C0BD4
781FFC
780FE4
ENDCHAR
STARTCHAR threequarters
ENCODING 190
SWIDTH 818 0
DWIDTH 13 0
BBX 12 13 1 -1
BITMAP
1A4010
BFC074
7F81F4
2F47D0
6F9F40
BE7D00
01F938
07DB78
1F4BFD
3D07F4
7802D0
7402D0
000040
ENDCHAR
STARTCHAR questiondown
ENCODING 191
SWIDTH 556 0
DWIDTH 9 0
BBX 9 13 -1 -1
BITMAP
000240
000BC0
0007C0
000000
000900
007E00
06FC00
2FE000
BF4000
FE5600
FFFF40
6FFF00
015400
ENDCHAR
STARTCHAR Agrave
ENCODING 192
SWIDTH 702 0
DWIDTH 11 0
BBX 12 17 -1 0
BITMAP
000900
001F80
000BE0
0002F4
000060
000100
000BD0
006FD0
00FFE0
02FFE0
03F6F0
0BE2FD
0FFFFF
2FBFFC
3F29BC
7E01FC
2D00F4
ENDCHAR
STARTCHAR Aacute
ENCODING 193
SWIDTH 702 0
DWIDTH 11 0
BBX 12 17 -1 0
BITMAP
000060
0001F4
0007E0
000F80
000900
000100
000BD0
006FD0
00FFE0
02FFE0
03F6F0
0BE2FD
0FFFFF
2FBFFC
3F29BC
7E01FC
2D00F4
ENDCHAR
STARTCHAR Acircumflex
ENCODING 194
SWIDTH 702 0
DWIDTH 11 0
BBX 12 17 -1 0
BITMAP
000140
0007D0
002FF8
007D7D
002418
000100
000BD0
006FD0
00FFE0
02FFE0
03F6F0
0BE2FD
0FFFFF
2FBFFC
3F29BC
7E01FC
2D00F4
ENDCHAR
STARTCHAR Atilde
ENCODING 195
SWIDTH 702 0
DWIDTH 11 0
BBX 13 16 -1 0
BITMAP
000BD780
002FFF40
0038BD00
00000000
00010000
000BD000
006FD000
00FFE000
02FFE000
03F6F000
0BE2FD00
0FFFFF00
2FBFFC00
3F29BC00
7E01FC00
2D00F400
ENDCHAR
STARTCHAR Adieresis
ENCODING 196
SWIDTH 702 0
DWIDTH 11 0
BBX 12 16 -1 0
BITMAP
001828
007D3E
002828
000000
000100
000BD0
006FD0
00FFE0
02FFE0
03F6F0
0BE2FD
0FFFFF
2FBFFC
3F29BC
7E01FC
2D00F4
ENDCHAR
STARTCHAR Aring
ENCODING 197
SWIDTH 702 0
DWIDTH 11 0
BBX 12 16 -1 0
BITMAP
000010
0001F0
0003F4
000B78
000BF8
000BD0
006FD0
00FFE0
02FFE0
03F6F0
0BE2FD
0FFFFF
2FBFFC
3F29BC
7E01FC
2D00F4
ENDCHAR
STARTCHAR AE
ENCODING 198
SWIDTH 1153 0
DWIDTH 18 0
BBX 20 12 -1 0
BITMAP
0001400054
0003E06FFE
002FF7FFFD
00FFF7FE50
02FFF3F540
03F6F3FFD0
0BD2FFFFE0
1FFFFFEA40
3FFFFF8010
BD65FFAAF4
F807FFFFF8
B403DBFF90
ENDCHAR
STARTCHAR Ccedilla
ENCODING 199
SWIDTH 611 0
DWIDTH 10 0
BBX 10 17 0 -5
BITMAP
000100
002FC0
01FFD0
0BFF80
2FF400
BF8000
FD0000
F40000
B80000
7FEA40
2FFFC0
07FF40
0B4000
0BD000
01B400
1AF800
1FE000
ENDCHAR
STARTCHAR Egrave
ENCODING 200
SWIDTH 626 0
DWIDTH 10 0
BBX 11 17 0 0
BITMAP
006000
00F800
00BE00
001F40
000640
000550
06BFF4
2FFFE0
2FF900
1F8400
1FFF40
3FFF40
7EA800
BC0000
BEAFC0
BFFFD0
2FFE40
ENDCHAR
STARTCHAR Eacute
ENCODING 201
SWIDTH 626 0
DWIDTH 10 0
BBX 11 17 0 0
BITMAP
000180
000BD0
002F80
007E00
002400
000550
06BFF4
2FFFE0
2FF900
1F8400
1FFF40
3FFF40
7EA800
BC0000
BEAFC0
BFFFD0
2FFE40
ENDCHAR
STARTCHAR Ecircumflex
ENCODING 202
SWIDTH 626 0
DWIDTH 10 0
BBX 11 17 0 0
BITMAP
000400
002F00
01FFD0
02E2E0
008090
000550
06BFF4
2FFFE0
2FF900
1F8400
1FFF40
3FFF40
7EA800
BC0000
BEAFC0
BFFFD0
2FFE40
ENDCHAR
STARTCHAR Edieresis
ENCODING 203
SWIDTH 626 0
DWIDTH 10 0
BBX 11 15 0 0
BITMAP
019190
02F1F0
01D190
000550
06BFF4
2FFFE0
2FF900
1F8400
1FFF40
3FFF40
7EA800
BC0000
BEAFC0
BFFFD0
2FFE40
ENDCHAR
STARTCHAR Igrave
ENCODING 204
SWIDTH 515 0
DWIDTH 8 0
BBX 12 18 -1 0
BITMAP
002400
00BD00
007F40
000BC0
000280
000000
016AA4
07FFFD
03FFA8
006E00
003E00
007D00
00BC00
00F800
01F400
17F900
7FFF00
7EA900
ENDCHAR
STARTCHAR Iacute
ENCODING 205
SWIDTH 515 0
DWIDTH 8 0
BBX 12 18 -1 0
BITMAP
000024
0000BC
0002F8
0007D0
000640
000000
016AA4
07FFFD
03FFA8
006E00
003E00
007D00
00BC00
00F800
01F400
17F900
7FFF00
7EA900
ENDCHAR
STARTCHAR Icircumflex
ENCODING 206
SWIDTH 515 0
DWIDTH 8 0
BBX 12 18 -1 0
BITMAP
000100
000BD0
002FF4
0078BC
002014
000000
016AA4
07FFFD
03FFA8
006E00
003E00
007D00
00BC00
00F800
01F400
17F900
7FFF00
7EA900
ENDCHAR
STARTCHAR Idieresis
ENCODING 207
SWIDTH 515 0
DWIDTH 8 0
BBX 12 16 -1 0
BITMAP
002428
007D3D
007828
000000
016AA4
07FFFD
03FFA8
006E00
003E00
007D00
00BC00
00F800
01F400
17F900
7FFF00
7EA900
ENDCHAR
STARTCHAR Eth
ENCODING 208
SWIDTH 656 0
DWIDTH 11 0
BBX 11 12 0 0
BITMAP
050000
0F9000
0BFD00
0FBF40
0F47D0
FFE1F0
FFE0F4
AF47F0
1FBFD0
2FFF40
2FF400
1E4000
ENDCHAR
STARTCHAR Ntilde
ENCODING 209
SWIDTH 684 0
DWIDTH 11 0
BBX 12 16 0 0
BITMAP
001F8A
007FFE
00B5F8
000000
004010
02E078
03F4BD
0BF4FC
0FF0F8
2FE1F4
3FE2F4
BFE7F0
FFFFE0
FDBFD0
B82F80
740900
ENDCHAR
STARTCHAR Ograve
ENCODING 210
SWIDTH 744 0
DWIDTH 12 0
BBX 12 17 0 0
BITMAP
000600
000F80
000BE0
0001F8
000064
000640
001FD0
00BFD0
02FFD0
0BFAF0
2FC0F4
7F007C
BD007D
B801FD
BEAFFC
7FFFE0
1FFE40
ENDCHAR
STARTCHAR Oacute
ENCODING 211
SWIDTH 744 0
DWIDTH 12 0
BBX 12 17 0 0
BITMAP
000180
0007D0
001F80
003E00
002400
000640
001FD0
00BFD0
02FFD0
0BFAF0
2FC0F4
7F007C
BD007D
B801FD
BEAFFC
7FFFE0
1FFE40
ENDCHAR
STARTCHAR Ocircumflex
ENCODING 212
SWIDTH 744 0
DWIDTH 12 0
BBX 12 17 0 0
BITMAP
000100
000BD0
002FF4
007C7C
002014
000640
001FD0
00BFD0
02FFD0
0BFAF0
2FC0F4
7F007C
BD007D
B801FD
BEAFFC
7FFFE0
1FFE40
ENDCHAR
STARTCHAR Otilde
ENCODING 213
SWIDTH 744 0
DWIDTH 12 0
BBX 12 16 0 0
BITMAP
001F8A
007FFE
00B5F8
000000
000640
001FD0
00BFD0
02FFD0
0BFAF0
2FC0F4
7F007C
BD007D
B801FD
BEAFFC
7FFFE0
1FFE40
ENDCHAR
STARTCHAR Odieresis
ENCODING 214
SWIDTH 744 0
DWIDTH 12 0
BBX 12 16 0 0
BITMAP
002424
00BC7D
007428
000000
000640
001FD0
00BFD0
02FFD0
0BFAF0
2FC0F4
7F007C
BD007D
B801FD
BEAFFC
7FFFE0
1FFE40
ENDCHAR
STARTCHAR multiply
ENCODING 215
SWIDTH 490 0
DWIDTH 8 0
BBX 8 9 0 0
BITMAP
1000
381E
2EBE
0FF4
0FC0
2FD0
B9F0
F0B4
9020
ENDCHAR
STARTCHAR Oslash
ENCODING 216
SWIDTH 744 0
DWIDTH 12 0
BBX 12 14 0 -2
BITMAP
000648
001FFD
00BFFC
02FFF8
0BFBF0
2FDFF4
7F2FBC
BDBD7D
B9F9FD
BFFFFC
7FFFE0
2FFE40
1F4000
1E0000
ENDCHAR
STARTCHAR Ugrave
ENCODING 217
SWIDTH 695 0
DWIDTH 11 0
BBX 12 16 0 0
BITMAP
008000
02F400
01FD00
003E00
000A14
00002C
2C003D
2E007D
3F007D
3E00FC
7E02F8
7E0BF0
3FBFD0
2FFF40
1FFD00
0AD000
ENDCHAR
STARTCHAR Uacute
ENCODING 218
SWIDTH 695 0
DWIDTH 11 0
BBX 12 17 0 0
BITMAP
000090
0002F0
000BE0
001F40
001900
000014
00002C
2C003D
2E007D
3F007D
3E00FC
7E02F8
7E0BF0
3FBFD0
2FFF40
1FFD00
0AD000
ENDCHAR
STARTCHAR Ucircumflex
ENCODING 219
SWIDTH 695 0
DWIDTH 11 0
BBX 12 17 0 0
BITMAP
000400
002F40
00BFD0
01E2F0
008050
000014
00002C
2C003D
2E007D
3F007D
3E00FC
7E02F8
7E0BF0
3FBFD0
2FFF40
1FFD00
0AD000
ENDCHAR
STARTCHAR Udieresis
ENCODING 220
SWIDTH 695 0
DWIDTH 11 0
BBX 12 16 0 0
BITMAP
009090
02F1F4
01D0A0
000000
000014
00002C
2C003D
2E007D
3F007D
3E00FC
7E02F8
7E0BF0
3FBFD0
2FFF40
1FFD00
0AD000
ENDCHAR
STARTCHAR Yacute
ENCODING 221
SWIDTH 493 0
DWIDTH 8 0
BBX 10 19 0 -1
BITMAP
000280
000BC0
002F80
007D00
006400
000000
240180
3D0BE0
3E2FD0
2E7F40
2FFD00
1FF800
0BF000
0BE000
1FC000
2F4000
7E0000
3D0000
140000
ENDCHAR
STARTCHAR Thorn
ENCODING 222
SWIDTH 680 0
DWIDTH 11 0
BBX 11 12 0 0
BITMAP
050000
0F0000
1F9500
2FFFE0
2FAFF8
3F02FC
7E0BF8
7EBFE0
7FFE40
7F9000
7D0000
3C0000
ENDCHAR
STARTCHAR germandbls
ENCODING 223
SWIDTH 931 0
DWIDTH 15 0
BBX 17 11 0 -1
BITMAP
005A406900
0BFF9BFF40
7FEAFFEA40
BF41FE0000
BFE0FFD000
05B416E000
007800B000
02F406F000
3FE0BFD000
3F40BE0000
1400100000
ENDCHAR
STARTCHAR agrave
ENCODING 224
SWIDTH 581 0
DWIDTH 9 0
BBX 10 15 -1 0
BITMAP
002400
007D00
002F40
000BC0
000180
000400
002F00
01FF00
03FF40
07DF40
0F8BE0
1FFFF0
2EFBD0
7C07D0
380780
ENDCHAR
STARTCHAR aacute
ENCODING 225
SWIDTH 581 0
DWIDTH 9 0
BBX 10 15 -1 0
BITMAP
000280
000BC0
002F80
007D00
006400
000400
002F00
01FF00
03FF40
07DF40
0F8BE0
1FFFF0
2EFBD0
7C07D0
380780
ENDCHAR
STARTCHAR acircumflex
ENCODING 226
SWIDTH 581 0
DWIDTH 9 0
BBX 10 15 -1 0
BITMAP
000400
002F40
00BFD0
01F1F0
008050
000400
002F00
01FF00
03FF40
07DF40
0F8BE0
1FFFF0
2EFBD0
7C07D0
380780
ENDCHAR
STARTCHAR atilde
ENCODING 227
SWIDTH 581 0
DWIDTH 9 0
BBX 11 13 -1 0
BITMAP
007E2C
00FFF8
02D7E0
000400
002F00
01FF00
03FF40
07DF40
0F8BE0
1FFFF0
2EFBD0
7C07D0
380780
ENDCHAR
STARTCHAR adieresis
ENCODING 228
SWIDTH 581 0
DWIDTH 9 0
BBX 11 14 -1 0
BITMAP
006060
00F4F8
00A060
000000
000400
002F00
01FF00
03FF40
07DF40
0F8BE0
1FFFF0
2EFBD0
7C07D0
380780
ENDCHAR
STARTCHAR aring
ENCODING 229
SWIDTH 581 0
DWIDTH 9 0
BBX 10 13 -1 0
BITMAP
000780
001FC0
003ED0
003FD0
003F40
01FF00
03FF40
07DF40
0F8BE0
1FFFF0
2EFBD0
7C07D0
380780
ENDCHAR
STARTCHAR ae
ENCODING 230
SWIDTH 948 0
DWIDTH 15 0
BBX 17 11 -1 -1
BITMAP
0005001500
001F5BFF40
01FF7FFA00
03FF7E4000
0BDF6FF400
0F8FFFF800
2FFFFD5000
7EFFF45800
F41BFFFE00
F01FBFF800
0000040000
ENDCHAR
STARTCHAR ccedilla
ENCODING 231
SWIDTH 513 0
DWIDTH 8 0
BBX 8 15 0 -5
BITMAP
0014
00BE
0BFE
2FE4
BE40
F800
F000
B950
7FFD
1BFD
0B00
0BD0
01F0
2FF0
1A40
ENDCHAR
STARTCHAR egrave
ENCODING 232
SWIDTH 521 0
DWIDTH 8 0
BBX 9 16 0 -1
BITMAP
060000
0F8000
0BE000
01F800
006400
001500
1AFF80
3FFE00
2F4000
2FF800
3FFC00
BD5000
B85800
BFFE00
7FF900
040000
ENDCHAR
STARTCHAR eacute
ENCODING 233
SWIDTH 521 0
DWIDTH 8 0
BBX 9 16 0 -1
BITMAP
000900
002F00
00BE00
02F400
019000
001500
1AFF80
3FFE00
2F4000
2FF800
3FFC00
BD5000
B85800
BFFE00
7FF900
040000
ENDCHAR
STARTCHAR ecircumflex
ENCODING 234
SWIDTH 521 0
DWIDTH 8 0
BBX 9 16 0 -1
BITMAP
001000
00BD00
02FF40
07C7C0
020140
001500
1AFF80
3FFE00
2F4000
2FF800
3FFC00
BD5000
B85800
BFFE00
7FF900
040000
ENDCHAR
STARTCHAR edieresis
ENCODING 235
SWIDTH 521 0
DWIDTH 8 0
BBX 10 15 0 -1
BITMAP
018180
03D3E0
028180
000000
001500
1AFF80
3FFE00
2F4000
2FF800
3FFC00
BD5000
B85800
BFFE00
7FF900
040000
ENDCHAR
STARTCHAR igrave
ENCODING 236
SWIDTH 320 0
DWIDTH 5 0
BBX 5 15 1 0
BITMAP
2400
BD00
7F40
0BC0
0280
1400
3C00
7C00
7C00
B800
F800
F400
F400
F400
B400
ENDCHAR
STARTCHAR iacute
ENCODING 237
SWIDTH 320 0
DWIDTH 5 0
BBX 8 15 1 0
BITMAP
0018
00BD
01F8
07E0
0240
1400
3C00
7C00
7C00
B800
F800
F400
F400
F400
B400
ENDCHAR
STARTCHAR icircumflex
ENCODING 238
SWIDTH 320 0
DWIDTH 5 0
BBX 7 15 0 0
BITMAP
0140
0BD0
2FF8
7D7C
2418
0500
0F00
1F00
1F00
2E00
3E00
3D00
3D00
3D00
2D00
ENDCHAR
STARTCHAR idieresis
ENCODING 239
SWIDTH 320 0
DWIDTH 5 0
BBX 8 14 0 0
BITMAP
2424
7D3D
7828
0000
0500
0F00
1F00
1F00
2E00
3E00
3D00
3D00
3D00
2D00
ENDCHAR
STARTCHAR eth
ENCODING 240
SWIDTH 541 0
DWIDTH 9 0
BBX 10 10 -1 0
BITMAP
050000
07E000
07FD00
075B40
6FD2C0
7FE2D0
1B5BD0
0FFF40
0FF800
0B8000
ENDCHAR
STARTCHAR ntilde
ENCODING 241
SWIDTH 564 0
DWIDTH 9 0
BBX 11 14 0 0
BITMAP
006E2C
00FFF8
01D7E0
000000
010100
0783C0
0BD7D0
1FC7C0
2F8B80
7F8F80
BFEF40
FEFF00
F4FD00
702400
ENDCHAR
STARTCHAR ograve
ENCODING 242
SWIDTH 628 0
DWIDTH 10 0
BBX 10 15 0 0
BITMAP
006000
00BD00
007F00
000F80
000280
001800
00BE00
02FE00
0BFF40
2F4780
7D02C0
B802D0
B45FD0
BFFF80
2FF900
ENDCHAR
STARTCHAR oacute
ENCODING 243
SWIDTH 628 0
DWIDTH 10 0
BBX 10 15 0 0
BITMAP
000600
001F40
007F40
00F800
009000
001800
00BE00
02FE00
0BFF40
2F4780
7D02C0
B802D0
B45FD0
BFFF80
2FF900
ENDCHAR
STARTCHAR ocircumflex
ENCODING 244
SWIDTH 628 0
DWIDTH 10 0
BBX 10 15 0 0
BITMAP
000400
002F40
00BFD0
01E2F0
008050
001800
00BE00
02FE00
0BFF40
2F4780
7D02C0
B802D0
B45FD0
BFFF80
2FF900
ENDCHAR
STARTCHAR otilde
ENCODING 245
SWIDTH 628 0
DWIDTH 10 0
BBX 11 14 0 0
BITMAP
006E2C
00FFF8
01D7E0
000000
001800
00BE00
02FE00
0BFF40
2F4780
7D02C0
B802D0
B45FD0
BFFF80
2FF900
ENDCHAR
STARTCHAR odieresis
ENCODING 246
SWIDTH 628 0
DWIDTH 10 0
BBX 11 14 0 0
BITMAP
0090A0
01F4F4
01E0A0
000000
001800
00BE00
02FE00
0BFF40
2F4780
7D02C0
B802D0
B45FD0
BFFF80
2FF900
ENDCHAR
STARTCHAR divide
ENCODING 247
SWIDTH 559 0
DWIDTH 9 0
BBX 9 10 0 0
BITMAP
004000
01E000
01F000
009000
5AA900
FFFF40
6A5500
064000
0B8000
0B4000
ENDCHAR
STARTCHAR oslash
ENCODING 248
SWIDTH 632 0
DWIDTH 10 0
BBX 10 12 0 -2
BITMAP
001850
00BFD0
02FFD0
0BFF80
2FAF80
7DBED0
B9F6D0
BBEBD0
BFFF80
3FF900
2E4000
1D0000
ENDCHAR
STARTCHAR ugrave
ENCODING 249
SWIDTH 584 0
DWIDTH 9 0
BBX 10 15 0 0
BITMAP
018000
03E000
02F800
007D00
001900
000040
1000D0
2C01E0
3D02E0
3D03D0
7C0BC0
7C6F40
3FFD00
2FF800
1F9000
ENDCHAR
STARTCHAR uacute
ENCODING 250
SWIDTH 584 0
DWIDTH 9 0
BBX 10 14 0 0
BITMAP
000280
000BC0
002F80
007D00
006440
1000D0
2C01E0
3D02E0
3D03D0
7C0BC0
7C6F40
3FFD00
2FF800
1F9000
ENDCHAR
STARTCHAR ucircumflex
ENCODING 251
SWIDTH 584 0
DWIDTH 9 0
BBX 10 15 0 0
BITMAP
001400
007E00
02FF80
03D7D0
024180
000040
1000D0
2C01E0
3D02E0
3D03D0
7C0BC0
7C6F40
3FFD00
2FF800
1F9000
ENDCHAR
STARTCHAR udieresis
ENCODING 252
SWIDTH 584 0
DWIDTH 9 0
BBX 10 14 0 0
BITMAP
018180
03D3E0
028180
000000
000040
1000D0
2C01E0
3D02E0
3D03D0
7C0BC0
7C6F40
3FFD00
2FF800
1F9000
ENDCHAR
STARTCHAR yacute
ENCODING 253
SWIDTH 400 0
DWIDTH 6 0
BBX 9 17 0 -1
BITMAP
000600
001F80
007F40
00FC00
00A000
000000
200900
3C2F00
3DBE00
2EF800
2FE000
0FD000
0F8000
2F0000
3D0000
7C0000
140000
ENDCHAR
STARTCHAR thorn
ENCODING 254
SWIDTH 579 0
DWIDTH 9 0
BBX 10 10 0 0
BITMAP
080000
1E0000
2FFA00
3FFFC0
3D0BD0
7C6FC0
7FFE00
BFE000
7D0000
380000
ENDCHAR
STARTCHAR ydieresis
ENCODING 255
SWIDTH 400 0
DWIDTH 6 0
BBX 9 15 0 -1
BITMAP
060640
0B8BC0
0B4640
000000
200900
3C2F00
3DBE00
2EF800
2FE000
0FD000
0F8000
2F0000
3D0000
7C0000
140000
ENDCHAR
STARTCHAR dotlessi
ENCODING 305
SWIDTH 320 0
DWIDTH 5 0
BBX 3 10 1 0
BITMAP
14
3C
7C
7C
B8
F8
F4
F4
F4
B4
ENDCHAR
STARTCHAR Lslash
ENCODING 321
SWIDTH 632 0
DWIDTH 10 0
BBX 12 12 -2 0
BITMAP
002400
007D00
00BD00
00FC00
01FE40
1BFF40
7FF400
2FD000
0BC150
0BFFF9
0BFFFE
03FA59
ENDCHAR
STARTCHAR lslash
ENCODING 322
SWIDTH 533 0
DWIDTH 9 0
BBX 10 11 -2 -1
BITMAP
005000
00F800
01F400
02F400
07FE00
7FE400
7F8000
0B9A40
0BFFF0
07FAA0
004000
ENDCHAR
STARTCHAR OE
ENCODING 338
SWIDTH 1212 0
DWIDTH 19 0
BBX 20 12 0 0
BITMAP
0006400054
001FD06FFE
00BFD7FFFD
02FFD7FE50
0BFAF3E540
2FC0FBFFD0
7F007FFFE0
BD007FEA40
B801FF8010
BEAFFFAAF4
7FFFFFFFF8
1FFE4BFF90
ENDCHAR
STARTCHAR oe
ENCODING 339
SWIDTH 1010 0
DWIDTH 16 0
BBX 17 11 0 -1
BITMAP
0018001500
00BE1BFF80
02FE3FFA00
0BFF7E4000
2F47AFF400
7D02FFF800
B802FD5000
B45FF45800
BFFFFFFE00
2FF97FF800
0000040000
ENDCHAR
STARTCHAR Scaron
ENCODING 352
SWIDTH 576 0
DWIDTH 9 0
BBX 11 18 0 0
BITMAP
004000
01D0E0
01F7E0
007F80
001900
000000
001690
06FFF4
2FFFFC
BFD550
BFE000
7FFC00
016E00
000F00
007F00
1AFD00
3FF400
3F8000
ENDCHAR
STARTCHAR scaron
ENCODING 353
SWIDTH 463 0
DWIDTH 7 0
BBX 9 17 0 -1
BITMAP
000100
0E0B00
0FAF40
02FC00
00A000
000000
005A40
0BFF80
7FEA80
BF4000
BFE000
05B400
007800
02F400
3FE000
3F4000
140000
ENDCHAR
STARTCHAR Ydieresis
ENCODING 376
SWIDTH 493 0
DWIDTH 8 0
BBX 10 17 0 -1
BITMAP
018180
03D3E0
028180
000000
240180
3D0BE0
3E2FD0
2E7F40
2FFD00
1FF800
0BF000
0BE000
1FC000
2F4000
7E0000
3D0000
140000
ENDCHAR
STARTCHAR Zcaron
ENCODING 381
SWIDTH 664 0
DWIDTH 11 0
BBX 12 19 0 -1
BITMAP
000004
00382C
003EBD
000BF4
000280
000000
055550
0BFFF8
07FFFC
015BF8
002FD0
01FF40
0BFD00
7FE000
FF4140
FD6FE0
FFFFD0
BFF900
1A4000
ENDCHAR
STARTCHAR zcaron
ENCODING 382
SWIDTH 547 0
DWIDTH 9 0
BBX 10 17 0 -1
BITMAP
004000
01D0E0
01F7E0
007F80
001900
000000
055500
0FFFC0
0BBFC0
007F40
02FC00
1FE000
7F4000
FD1A00
FFFF40
BFF800
190000
ENDCHAR
STARTCHAR circumflex
ENCODING 710
SWIDTH 754 0
DWIDTH 12 0
BBX 8 5 3 8
BITMAP
0140
07D0
2FF8
7D7D
2418
ENDCHAR
STARTCHAR caron
ENCODING 711
SWIDTH 754 0
DWIDTH 12 0
BBX 6 5 4 8
BITMAP
4010
E0B0
FAF0
3FC0
0A00
ENDCHAR
STARTCHAR breve
ENCODING 728
SWIDTH 754 0
DWIDTH 12 0
BBX 6 4 4 9
BITMAP
4010
E0B0
FFF0
6F90
ENDCHAR
STARTCHAR dotaccent
ENCODING 729
SWIDTH 754 0
DWIDTH 12 0
BBX 4 3 5 9
BITMAP
24
7D
38
ENDCHAR
STARTCHAR ring
ENCODING 730
SWIDTH 754 0
DWIDTH 12 0
BBX 6 5 4 8
BITMAP
0740
1F80
3EC0
7FD0
2E40
ENDCHAR
STARTCHAR ogonek
ENCODING 731
SWIDTH 754 0
DWIDTH 12 0
BBX 6 6 5 -5
BITMAP
4000
D000
D000
FA90
6FE0
0140
ENDCHAR
STARTCHAR tilde
ENCODING 732
SWIDTH 754 0
DWIDTH 12 0
BBX 8 3 3 9
BITMAP
1F4A
7FFD
B6F8
ENDCHAR
STARTCHAR hungarumlaut
ENCODING 733
SWIDTH 754 0
DWIDTH 12 0
BBX 10 5 2 7
BITMAP
028180
0BDBD0
2FAF80
7D7E00
642400
ENDCHAR
STARTCHAR endash
ENCODING 8211
SWIDTH 588 0
DWIDTH 9 0
BBX 9 3 0 3
BITMAP
055400
BFFF40
7EAA00
ENDCHAR
STARTCHAR emdash
ENCODING 8212
SWIDTH 878 0
DWIDTH 14 0
BBX 13 3 0 3
BITMAP
155A9500
BFFFFF80
2EAAA940
ENDCHAR
STARTCHAR quoteleft
ENCODING 8216
SWIDTH 203 0
DWIDTH 3 0
BBX 4 5 1 7
BITMAP
2E
3E
7D
B8
64
ENDCHAR
STARTCHAR quoteright
ENCODING 8217
SWIDTH 199 0
DWIDTH 3 0
BBX 4 5 1 7
BITMAP
1D
2E
3E
BC
64
ENDCHAR
STARTCHAR quotesinglbase
ENCODING 8218
SWIDTH 204 0
DWIDTH 3 0
BBX 4 5 -2 -3
BITMAP
1E
2F
3E
BC
24
ENDCHAR
STARTCHAR quotedblleft
ENCODING 8220
SWIDTH 410 0
DWIDTH 7 0
BBX 7 5 1 7
BITMAP
2D78
3EBC
7DF4
B9F0
74A0
ENDCHAR
STARTCHAR quotedblright
ENCODING 8221
SWIDTH 425 0
DWIDTH 7 0
BBX 8 5 1 7
BITMAP
1D29
2E3D
3EBC
BDF4
64A0
ENDCHAR
STARTCHAR quotedblbase
ENCODING 8222
SWIDTH 430 0
DWIDTH 7 0
BBX 8 5 -2 -3
BITMAP
1E2D
2F3E
3EBC
BDF4
2490
ENDCHAR
STARTCHAR bullet
ENCODING 8226
SWIDTH 299 0
DWIDTH 5 0
BBX 4 4 0 3
BITMAP
14
7E
7E
7D
ENDCHAR
STARTCHAR ellipsis
ENCODING 8230
SWIDTH 768 0
DWIDTH 12 0
BBX 12 4 -1 -1
BITMAP
141404
7D3E2F
7C3D2E
140404
ENDCHAR
STARTCHAR perthousand
ENCODING 8240
SWIDTH 889 0
DWIDTH 14 0
BBX 15 12 0 0
BITMAP
01000000
07803400
1FC0F400
3ED3E000
3FDF4000
197D0000
00F40000
07D781E0
1F5F87E0
3D3EDEB4
7C7FEFF4
742A4A90
ENDCHAR
STARTCHAR guilsinglleft
ENCODING 8249
SWIDTH 322 0
DWIDTH 5 0
BBX 5 8 0 -1
BITMAP
0240
0B80
6E00
F800
F400
7D00
0B00
0100
ENDCHAR
STARTCHAR guilsinglright
ENCODING 8250
SWIDTH 341 0
DWIDTH 5 0
BBX 6 8 -1 -1
BITMAP
1400
1E00
0BC0
03D0
0FD0
3E00
7400
1000
ENDCHAR
STARTCHAR fraction
ENCODING 8260
SWIDTH 541 0
DWIDTH 9 0
BBX 9 12 0 0
BITMAP
000140
000740
001F40
003E00
00B800
01F000
07D000
1F4000
3E0000
B80000
B40000
B40000
ENDCHAR
STARTCHAR Euro
ENCODING 8364
SWIDTH 565 0
DWIDTH 9 0
BBX 10 10 -1 0
BITMAP
000140
001FD0
00BFD0
02FD00
0BE400
7FFF40
3FEA40
0BA540
02FFC0
006A80
ENDCHAR
STARTCHAR Delta
ENCODING 8710
SWIDTH 403 0
DWIDTH 6 0
BBX 10 11 -1 -1
BITMAP
016A40
0BFFD0
06B940
00B400
00F400
01F000
02E000
03D000
7FF800
7FA400
100000
ENDCHAR
STARTCHAR minus
ENCODING 8722
SWIDTH 548 0
DWIDTH 9 0
BBX 8 3 0 3
BITMAP
1554
FFFE
BEA9
ENDCHAR
STARTCHAR approxequal
ENCODING 8776
SWIDTH 323 0
DWIDTH 5 0
BBX 5 12 0 0
BITMAP
0100
0F00
1F40
1F80
2F40
3F00
3E00
7E00
7D00
7D00
3D00
2D00
ENDCHAR
STARTCHAR fi
ENCODING 64257
SWIDTH 810 0
DWIDTH 13 0
BBX 13 10 -1 0
BITMAP
00169140
06FFF780
1FF957C0
0BC00BC0
07800B80
3FFF0F40
7FFE0F00
2E401F00
2D000F00
2C000B00
ENDCHAR
STARTCHAR fl
ENCODING 64258
SWIDTH 1012 0
DWIDTH 16 0
BBX 17 11 -1 -1
BITMAP
0016924000
06FFFBD000
1FF95BC000
0BC00F8000
07801F4000
3FFF2F0000
7FFE3E0000
2E403D6900
2D003FFF80
2C002FEA80
0000040000
ENDCHAR
STARTCHAR .notdef
ENCODING -1
SWIDTH 370 0
DWIDTH 6 0
BBX 1 1 0 0
BITMAP
00
ENDCHAR
ENDFONT
